#!OML:ASF H:\Terrain\Patient Classification 1\Walking\liu\liu.ASF
:FULLY-SPECIFIED
:DEGREES
213
root 0.0216 16.1716 43.6431 8.95346 0.0156 4.87629
lowerback -4.7705 -4.47737 -6.97035
upperback -0.615452 -5.65089 1.80736
thorax 2.88961 -2.91364 5.33226
lowerneck -23.164 -3.30778 -11.496
upperneck 22.5883 -3.66732 11.435
head 11.6559 -1.19896 5.62435
rclavicle -2.05742e-014 -1.66979e-014
rhumerus -48.9282 4.55298 -80.5128
rradius 26.4363
rwrist -11.848
rhand -28.8981 -18.9904
rfingers 7.12502
rthumb -2.25334 -48.9582
lclavicle -2.05742e-014 -1.66979e-014
lhumerus -10.674 -20.6323 82.9834
lradius 38.1972
lwrist 10.2092
lhand -15.9504 -27.3513
lfingers 7.12502
lthumb 10.248 2.37908
rfemur -44.6763 13.9822 6.71779
rtibia 25.3719
rfoot -24.93 -10.358
rtoes -21.9412
lfemur 12.2691 3.00872 -28.9178
ltibia 3.18055e-015
lfoot -11.4889 -4.17614
ltoes 0.319262
214
root 0.0216 16.1505 43.8355 8.8236 0.0156 5.07383
lowerback -4.70608 -4.4344 -7.21389
upperback -0.548717 -5.58391 1.80029
thorax 2.93604 -2.88688 5.46946
lowerneck -23.2059 -3.3463 -11.7241
upperneck 22.63 -3.64179 11.4566
head 11.6814 -1.20449 5.6791
rclavicle -8.05575e-014 -7.15625e-015
rhumerus -49.2512 4.55118 -80.2795
rradius 26.6114
rwrist -12.0974
rhand -29.8694 -19.5378
rfingers 7.12502
rthumb -3.19137 -49.4937
lclavicle -8.05575e-014 -7.15625e-015
lhumerus -10.3372 -20.7021 83.0081
lradius 38.5514
lwrist 10.1692
lhand -16.1107 -27.5678
lfingers 7.12502
lthumb 10.0933 2.1701
rfemur -44.5132 12.8252 7.54987
rtibia 25.4285
rfoot -24.2802 -9.64641
rtoes -22.6517
lfemur 13.1686 3.4839 -28.8744
ltibia -1.145e-013
lfoot -11.3903 -4.73411
ltoes 0.324193
215
root 0.0216 16.1236 44.0278 8.68574 0.0156 5.03687
lowerback -4.4274 -4.36668 -7.23399
upperback -0.664416 -5.51804 1.87052
thorax 2.65812 -2.84221 5.58735
lowerneck -23.1089 -3.42228 -11.8515
upperneck 22.7684 -3.68986 11.3337
head 11.7221 -1.25696 5.65013
rclavicle 7.44449e-014 5.56597e-015
rhumerus -50.3445 5.23536 -80.6511
rradius 27.3751
rwrist -12.854
rhand -29.2572 -18.2151
rfingers 7.12502
rthumb -2.60011 -48.179
lclavicle 7.44449e-014 5.56597e-015
lhumerus -10.366 -20.9674 83.2194
lradius 38.8592
lwrist 10.2822
lhand -16.1891 -28.1154
lfingers 7.12502
lthumb 10.0178 1.62621
rfemur -44.2809 11.5756 8.72069
rtibia 25.6113
rfoot -23.8463 -8.76507
rtoes -20.8705
lfemur 14.0417 3.90768 -28.516
ltibia 2.54444e-014
lfoot -11.043 -5.46565
ltoes 2.25756
216
root 0.0216 16.0946 44.2201 8.60019 0.0156 4.80462
lowerback -4.24849 -4.33527 -7.0453
upperback -0.728827 -5.50197 1.96452
thorax 2.47995 -2.82521 5.59832
lowerneck -23.1993 -3.48839 -11.6848
upperneck 22.8945 -3.7482 10.9948
head 11.7849 -1.31003 5.48467
rclavicle -4.42296e-015 1.11319e-014
rhumerus -51.0171 5.30971 -80.6906
rradius 27.7631
rwrist -12.8489
rhand -29.7438 -18.7549
rfingers 7.12502
rthumb -3.07007 -48.7126
lclavicle -4.42296e-015 1.11319e-014
lhumerus -10.3648 -21.2592 83.2862
lradius 39.2733
lwrist 10.5355
lhand -15.9512 -28.1566
lfingers 7.12502
lthumb 10.2473 1.57379
rfemur -44.0006 10.306 10.1299
rtibia 25.8899
rfoot -23.1192 -7.81487
rtoes -19.1105
lfemur 14.8774 4.2908 -27.9545
ltibia 9.54166e-015
lfoot -10.6841 -6.0853
ltoes 2.65454
217
root 0.0216 16.065 44.4125 8.71049 0.0156 4.64642
lowerback -4.59188 -4.32462 -6.91845
upperback -0.642553 -5.46935 2.02604
thorax 2.75154 -2.81968 5.56514
lowerneck -23.4361 -3.4427 -11.8086
upperneck 22.9634 -3.66426 11.1721
head 11.852 -1.25592 5.59607
rclavicle -5.11871e-015 1.27222e-014
rhumerus -50.8888 4.82014 -80.186
rradius 27.8215
rwrist -12.6162
rhand -31.3534 -21.6001
rfingers 7.12502
rthumb -4.6244 -51.5296
lclavicle -5.11871e-015 1.27222e-014
lhumerus -10.0988 -21.1957 83.217
lradius 39.6997
lwrist 10.5397
lhand -15.7495 -28.0814
lfingers 7.12502
lthumb 10.4418 1.63926
rfemur -43.8882 8.99149 11.5238
rtibia 26.2622
rfoot -21.85 -6.96247
rtoes -19.8981
lfemur 15.5294 4.74256 -27.496
ltibia 4.77083e-014
lfoot -10.1719 -6.60476
ltoes 2.50141
218
root 0.0216 16.0374 44.6048 8.90582 0.0156 4.49936
lowerback -5.04152 -4.35938 -6.8071
upperback -0.633564 -5.49246 2.09952
thorax 3.01314 -2.8391 5.54346
lowerneck -23.6145 -3.31128 -11.8167
upperneck 22.9997 -3.4815 11.2648
head 11.8765 -1.15874 5.66889
rclavicle 1.02374e-014 1.35174e-014
rhumerus -50.5945 4.12823 -79.4783
rradius 27.4143
rwrist -11.6632
rhand -30.3462 -21.9833
rfingers 7.12502
rthumb -3.65178 -51.9317
lclavicle 1.02374e-014 1.35174e-014
lhumerus -10.1422 -21.0999 83.1926
lradius 40.1697
lwrist 10.5342
lhand -16.164 -28.3065
lfingers 7.12502
lthumb 10.0419 1.43391
rfemur -43.8513 7.73668 12.8854
rtibia 26.831
rfoot -20.7953 -6.10887
rtoes -20.6474
lfemur 16.1224 5.20977 -27.0295
ltibia 5.08889e-014
lfoot -9.52779 -7.18009
ltoes 3.80898
219
root 0.0216 16.0009 44.7971 8.77084 0.0156 4.68393
lowerback -4.92159 -4.31597 -7.00474
upperback -0.653645 -5.43 2.01776
thorax 2.92595 -2.80615 5.58473
lowerneck -23.5992 -3.26326 -11.6055
upperneck 22.9194 -3.44085 11.0979
head 11.8291 -1.14191 5.56911
rclavicle -2.80783e-014 -2.38542e-015
rhumerus -50.5654 3.27385 -78.8952
rradius 26.6914
rwrist -10.3728
rhand -28.1312 -19.5482
rfingers 7.12502
rthumb -1.51264 -49.5226
lclavicle -2.80783e-014 -2.38542e-015
lhumerus -10.422 -21.3673 83.27
lradius 40.7692
lwrist 10.9777
lhand -16.0646 -28.4497
lfingers 7.12502
lthumb 10.1378 1.2861
rfemur -43.5317 6.64149 13.763
rtibia 27.6541
rfoot -19.9304 -5.01533
rtoes -21.1215
lfemur 17.1192 5.6363 -26.8722
ltibia -8.5875e-014
lfoot -8.87631 -7.74869
ltoes 5.51733
220
root 0.0216 15.9573 44.9895 8.58373 0.0156 4.97332
lowerback -4.73024 -4.28011 -7.27481
upperback -0.639247 -5.37844 1.91311
thorax 2.84062 -2.78028 5.64497
lowerneck -23.6709 -3.3481 -11.6058
upperneck 22.9618 -3.53207 11.0134
head 11.8704 -1.19239 5.52317
rclavicle 4.4975e-014 2.54444e-014
rhumerus -50.7674 3.09673 -78.8704
rradius 26.4055
rwrist -10.3627
rhand -28.2059 -18.7488
rfingers 7.12502
rthumb -1.5848 -48.7226
lclavicle 4.4975e-014 2.54444e-014
lhumerus -10.6557 -21.6348 83.4768
lradius 41.27
lwrist 11.3243
lhand -15.7651 -28.8297
lfingers 7.12502
lthumb 10.4268 0.891745
rfemur -43.2904 5.79989 14.2375
rtibia 28.7446
rfoot -18.4625 -3.76647
rtoes -22.2031
lfemur 18.1528 5.84831 -26.8205
ltibia 3.18055e-015
lfoot -8.03208 -8.13273
ltoes 6.74076
221
root 0.0217 15.9246 45.1818 8.59487 0.0156 4.95138
lowerback -4.88667 -4.34931 -7.21866
upperback -0.651785 -5.46316 1.94159
thorax 2.92584 -2.82456 5.62364
lowerneck -23.9606 -3.33676 -11.4285
upperneck 23.1736 -3.45387 10.6312
head 11.9855 -1.18561 5.36776
rclavicle -3.06625e-014 1.19271e-014
rhumerus -50.732 2.76458 -78.5692
rradius 26.0852
rwrist -10.0848
rhand -29.1986 -20.4722
rfingers 7.12502
rthumb -2.54349 -50.4368
lclavicle -3.06625e-014 1.19271e-014
lhumerus -11.053 -21.9547 83.6753
lradius 41.6615
lwrist 11.1895
lhand -16.4978 -29.3906
lfingers 7.12502
lthumb 9.71989 0.365133
rfemur -43.3373 5.17112 14.8651
rtibia 30.0154
rfoot -15.9905 -2.82421
rtoes -22.6646
lfemur 18.9279 5.97653 -26.4681
ltibia 0
lfoot -7.15942 -8.30048
ltoes 6.47439
222
root 0.0217 15.9105 45.3741 8.58931 0.0156 5.07994
lowerback -5.05471 -4.44542 -7.30377
upperback -0.700356 -5.57421 1.90833
thorax 2.99106 -2.88115 5.61411
lowerneck -23.9903 -3.13983 -11.4027
upperneck 23.2217 -3.1969 10.6808
head 11.9748 -1.06152 5.4294
rclavicle -1.00585e-013 1.43125e-014
rhumerus -50.453 1.88966 -77.7789
rradius 25.5359
rwrist -8.73041
rhand -29.1846 -21.9356
rfingers 7.12502
rthumb -2.52999 -51.9004
lclavicle -1.00585e-013 1.43125e-014
lhumerus -11.6852 -22.1797 83.7347
lradius 42.1948
lwrist 11.1349
lhand -17.0777 -29.6128
lfingers 7.12502
lthumb 9.16037 0.168262
rfemur -43.5321 4.79948 15.1641
rtibia 31.3437
rfoot -12.9908 -2.29757
rtoes -23.0194
lfemur 19.676 6.29675 -26.3223
ltibia 1.27222e-014
lfoot -6.31637 -8.27114
ltoes 3.83268
223
root 0.0217 15.9087 45.5665 8.55854 0.0156 5.17814
lowerback -5.16577 -4.53278 -7.3679
upperback -0.784026 -5.68011 1.89257
thorax 2.98672 -2.93164 5.61723
lowerneck -23.8486 -3.03568 -11.7809
upperneck 23.2402 -3.08093 11.231
head 11.9553 -0.977065 5.7318
rclavicle -2.25621e-014 3.18055e-015
rhumerus -50.5229 1.46303 -77.3135
rradius 25.6668
rwrist -8.1601
rhand -29.725 -23.0381
rfingers 7.12502
rthumb -3.05188 -52.996
lclavicle -2.25621e-014 3.18055e-015
lhumerus -12.2644 -22.2972 83.8907
lradius 42.5993
lwrist 11.3918
lhand -17.1447 -29.7702
lfingers 7.12502
lthumb 9.09572 0.013689
rfemur -43.8074 4.72535 15.2172
rtibia 32.678
rfoot -10.6283 -1.87508
rtoes -21.4649
lfemur 20.4473 6.56222 -26.1389
ltibia -6.36111e-015
lfoot -5.28931 -8.11702
ltoes 0.596852
